<svg width="141" height="166" viewBox="0 0 141 166" fill="none" xmlns="http://www.w3.org/2000/svg">
<path d="M2.22826 46.0453C2.91231 46.0453 3.46716 45.4907 3.46716 44.8064C3.46716 44.1223 2.91231 43.5675 2.22826 43.5675C1.54392 43.5675 0.98938 44.1223 0.98938 44.8064C0.98938 45.4907 1.54392 46.0453 2.22826 46.0453Z" fill="#0F75C2"/>
<path d="M29.661 45.8395C30.3454 45.8395 30.8999 45.2849 30.8999 44.6006C30.8999 43.9163 30.3454 43.3617 29.661 43.3617C28.977 43.3617 28.4221 43.9163 28.4221 44.6006C28.4221 45.2849 28.977 45.8395 29.661 45.8395Z" fill="#0F75C2"/>
<path d="M15.9451 53.9217C16.6294 53.9217 17.184 53.3669 17.184 52.6829C17.184 51.9985 16.6294 51.444 15.9451 51.444C15.261 51.444 14.7062 51.9985 14.7062 52.6829C14.7062 53.3669 15.261 53.9217 15.9451 53.9217Z" fill="#0F75C2"/>
<path d="M2.22826 62.0335C2.91231 62.0335 3.46716 61.4787 3.46716 60.7946C3.46716 60.1103 2.91231 59.5557 2.22826 59.5557C1.54392 59.5557 0.98938 60.1103 0.98938 60.7946C0.98938 61.4787 1.54392 62.0335 2.22826 62.0335Z" fill="#0F75C2"/>
<path d="M70.8099 38.8191C72.2273 38.8191 73.3762 37.6698 73.3762 36.2528C73.3762 34.8354 72.2273 33.6865 70.8099 33.6865C69.3929 33.6865 68.2437 34.8354 68.2437 36.2528C68.2437 37.6698 69.3929 38.8191 70.8099 38.8191Z" fill="#0F75C2"/>
<path d="M57.094 46.9309C58.5113 46.9309 59.6602 45.7817 59.6602 44.3646C59.6602 42.9473 58.5113 41.7983 57.094 41.7983C55.6769 41.7983 54.5277 42.9473 54.5277 44.3646C54.5277 45.7817 55.6769 46.9309 57.094 46.9309Z" fill="#0F75C2"/>
<path d="M43.3773 55.0427C44.7947 55.0427 45.9436 53.8934 45.9436 52.4764C45.9436 51.059 44.7947 49.9101 43.3773 49.9101C41.96 49.9101 40.811 51.059 40.811 52.4764C40.811 53.8934 41.96 55.0427 43.3773 55.0427Z" fill="#0F75C2"/>
<path d="M29.6611 63.1544C31.0785 63.1544 32.2274 62.0052 32.2274 60.5882C32.2274 59.1708 31.0785 58.0219 29.6611 58.0219C28.2438 58.0219 27.0948 59.1708 27.0948 60.5882C27.0948 62.0052 28.2438 63.1544 29.6611 63.1544Z" fill="#0F75C2"/>
<path d="M15.9452 71.2367C17.3625 71.2367 18.5115 70.0875 18.5115 68.6704C18.5115 67.2531 17.3625 66.1041 15.9452 66.1041C14.5278 66.1041 13.3789 67.2531 13.3789 68.6704C13.3789 70.0875 14.5278 71.2367 15.9452 71.2367Z" fill="#0F75C2"/>
<path d="M2.22826 78.0209C2.91231 78.0209 3.46716 77.4663 3.46716 76.782C3.46716 76.0976 2.91231 75.5431 2.22826 75.5431C1.54392 75.5431 0.98938 76.0976 0.98938 76.782C0.98938 77.4663 1.54392 78.0209 2.22826 78.0209Z" fill="#0F75C2"/>
<path d="M70.8102 57.373C73.6446 57.373 75.9427 55.0752 75.9427 52.2405C75.9427 49.4058 73.6446 47.1079 70.8102 47.1079C67.9755 47.1079 65.6776 49.4058 65.6776 52.2405C65.6776 55.0752 67.9755 57.373 70.8102 57.373Z" fill="#0F75C2"/>
<path d="M57.0942 65.4848C59.9286 65.4848 62.2268 63.1869 62.2268 60.3522C62.2268 57.5175 59.9286 55.2197 57.0942 55.2197C54.2595 55.2197 51.9617 57.5175 51.9617 60.3522C51.9617 63.1869 54.2595 65.4848 57.0942 65.4848Z" fill="#0F75C2"/>
<path d="M43.3775 73.5966C46.2122 73.5966 48.5101 71.2987 48.5101 68.464C48.5101 65.6293 46.2122 63.3315 43.3775 63.3315C40.5431 63.3315 38.245 65.6293 38.245 68.464C38.245 71.2987 40.5431 73.5966 43.3775 73.5966Z" fill="#0F75C2"/>
<path d="M29.6609 81.6788C32.4953 81.6788 34.7934 79.3809 34.7934 76.5462C34.7934 73.7115 32.4953 71.4137 29.6609 71.4137C26.8262 71.4137 24.5283 73.7115 24.5283 76.5462C24.5283 79.3809 26.8262 81.6788 29.6609 81.6788Z" fill="#0F75C2"/>
<path d="M15.9452 87.224C17.3625 87.224 18.5115 86.0751 18.5115 84.6577C18.5115 83.2404 17.3625 82.0914 15.9452 82.0914C14.5278 82.0914 13.3789 83.2404 13.3789 84.6577C13.3789 86.0751 14.5278 87.224 15.9452 87.224Z" fill="#0F75C2"/>
<path d="M2.22826 94.0081C2.91231 94.0081 3.46716 93.4535 3.46716 92.7692C3.46716 92.0851 2.91231 91.5303 2.22826 91.5303C1.54392 91.5303 0.98938 92.0851 0.98938 92.7692C0.98938 93.4535 1.54392 94.0081 2.22826 94.0081Z" fill="#0F75C2"/>
<path d="M70.8102 73.3602C73.6446 73.3602 75.9427 71.0624 75.9427 68.2277C75.9427 65.3933 73.6446 63.0952 70.8102 63.0952C67.9755 63.0952 65.6776 65.3933 65.6776 68.2277C65.6776 71.0624 67.9755 73.3602 70.8102 73.3602Z" fill="#0F75C2"/>
<path d="M57.0942 81.472C59.9286 81.472 62.2268 79.1741 62.2268 76.3394C62.2268 73.505 59.9286 71.2069 57.0942 71.2069C54.2595 71.2069 51.9617 73.505 51.9617 76.3394C51.9617 79.1741 54.2595 81.472 57.0942 81.472Z" fill="#0F75C2"/>
<path d="M43.3775 89.5543C46.2122 89.5543 48.5101 87.2564 48.5101 84.4217C48.5101 81.5873 46.2122 79.2892 43.3775 79.2892C40.5431 79.2892 38.245 81.5873 38.245 84.4217C38.245 87.2564 40.5431 89.5543 43.3775 89.5543Z" fill="#0F75C2"/>
<path d="M29.6609 97.6661C32.4953 97.6661 34.7934 95.3682 34.7934 92.5335C34.7934 89.6991 32.4953 87.401 29.6609 87.401C26.8262 87.401 24.5283 89.6991 24.5283 92.5335C24.5283 95.3682 26.8262 97.6661 29.6609 97.6661Z" fill="#0F75C2"/>
<path d="M15.9452 103.211C17.3625 103.211 18.5115 102.062 18.5115 100.645C18.5115 99.2277 17.3625 98.0787 15.9452 98.0787C14.5278 98.0787 13.3789 99.2277 13.3789 100.645C13.3789 102.062 14.5278 103.211 15.9452 103.211Z" fill="#0F75C2"/>
<path d="M2.22826 109.996C2.91231 109.996 3.46716 109.442 3.46716 108.757C3.46716 108.073 2.91231 107.518 2.22826 107.518C1.54392 107.518 0.98938 108.073 0.98938 108.757C0.98938 109.442 1.54392 109.996 2.22826 109.996Z" fill="#0F75C2"/>
<path d="M70.8099 86.7818C72.2273 86.7818 73.3762 85.6329 73.3762 84.2155C73.3762 82.7982 72.2273 81.6492 70.8099 81.6492C69.3929 81.6492 68.2437 82.7982 68.2437 84.2155C68.2437 85.6329 69.3929 86.7818 70.8099 86.7818Z" fill="#0F75C2"/>
<path d="M57.094 94.864C58.5113 94.864 59.6602 93.7148 59.6602 92.2978C59.6602 90.8804 58.5113 89.7315 57.094 89.7315C55.6769 89.7315 54.5277 90.8804 54.5277 92.2978C54.5277 93.7148 55.6769 94.864 57.094 94.864Z" fill="#0F75C2"/>
<path d="M43.3773 102.976C44.7947 102.976 45.9436 101.827 45.9436 100.41C45.9436 98.9922 44.7947 97.8433 43.3773 97.8433C41.96 97.8433 40.811 98.9922 40.811 100.41C40.811 101.827 41.96 102.976 43.3773 102.976Z" fill="#0F75C2"/>
<path d="M29.6611 111.088C31.0785 111.088 32.2274 109.938 32.2274 108.521C32.2274 107.104 31.0785 105.955 29.6611 105.955C28.2438 105.955 27.0948 107.104 27.0948 108.521C27.0948 109.938 28.2438 111.088 29.6611 111.088Z" fill="#0F75C2"/>
<path d="M15.9451 117.872C16.6294 117.872 17.184 117.317 17.184 116.633C17.184 115.949 16.6294 115.394 15.9451 115.394C15.261 115.394 14.7062 115.949 14.7062 116.633C14.7062 117.317 15.261 117.872 15.9451 117.872Z" fill="#0F75C2"/>
<path d="M2.22826 125.984C2.91231 125.984 3.46716 125.429 3.46716 124.745C3.46716 124.061 2.91231 123.506 2.22826 123.506C1.54392 123.506 0.98938 124.061 0.98938 124.745C0.98938 125.429 1.54392 125.984 2.22826 125.984Z" fill="#0F75C2"/>
<path d="M70.8097 101.412C71.4937 101.412 72.0486 100.857 72.0486 100.173C72.0486 99.489 71.4937 98.9342 70.8097 98.9342C70.1253 98.9342 69.5708 99.489 69.5708 100.173C69.5708 100.857 70.1253 101.412 70.8097 101.412Z" fill="#0F75C2"/>
<path d="M57.0937 109.524C57.7781 109.524 58.3326 108.969 58.3326 108.285C58.3326 107.601 57.7781 107.046 57.0937 107.046C56.4097 107.046 55.8549 107.601 55.8549 108.285C55.8549 108.969 56.4097 109.524 57.0937 109.524Z" fill="#0F75C2"/>
<path d="M43.3778 117.635C44.0622 117.635 44.6167 117.081 44.6167 116.397C44.6167 115.713 44.0622 115.158 43.3778 115.158C42.6935 115.158 42.1389 115.713 42.1389 116.397C42.1389 117.081 42.6935 117.635 43.3778 117.635Z" fill="#0F75C2"/>
<path d="M29.661 125.747C30.3454 125.747 30.8999 125.193 30.8999 124.508C30.8999 123.824 30.3454 123.27 29.661 123.27C28.977 123.27 28.4221 123.824 28.4221 124.508C28.4221 125.193 28.977 125.747 29.661 125.747Z" fill="#0F75C2"/>
<path d="M15.9451 133.859C16.6294 133.859 17.184 133.305 17.184 132.62C17.184 131.936 16.6294 131.381 15.9451 131.381C15.261 131.381 14.7062 131.936 14.7062 132.62C14.7062 133.305 15.261 133.859 15.9451 133.859Z" fill="#0F75C2"/>
<path d="M70.8097 117.4C71.4937 117.4 72.0486 116.846 72.0486 116.161C72.0486 115.477 71.4937 114.922 70.8097 114.922C70.1253 114.922 69.5708 115.477 69.5708 116.161C69.5708 116.846 70.1253 117.4 70.8097 117.4Z" fill="#0F75C2"/>
<path d="M57.0937 125.512C57.7781 125.512 58.3326 124.957 58.3326 124.273C58.3326 123.589 57.7781 123.034 57.0937 123.034C56.4097 123.034 55.8549 123.589 55.8549 124.273C55.8549 124.957 56.4097 125.512 57.0937 125.512Z" fill="#0F75C2"/>
<path d="M43.3778 133.624C44.0622 133.624 44.6167 133.069 44.6167 132.385C44.6167 131.7 44.0622 131.146 43.3778 131.146C42.6935 131.146 42.1389 131.7 42.1389 132.385C42.1389 133.069 42.6935 133.624 43.3778 133.624Z" fill="#0F75C2"/>
<path d="M29.661 141.735C30.3454 141.735 30.8999 141.181 30.8999 140.497C30.8999 139.812 30.3454 139.258 29.661 139.258C28.977 139.258 28.4221 139.812 28.4221 140.497C28.4221 141.181 28.977 141.735 29.661 141.735Z" fill="#0F75C2"/>
<path d="M70.8097 133.387C71.4937 133.387 72.0486 132.833 72.0486 132.149C72.0486 131.464 71.4937 130.91 70.8097 130.91C70.1253 130.91 69.5708 131.464 69.5708 132.149C69.5708 132.833 70.1253 133.387 70.8097 133.387Z" fill="#0F75C2"/>
<path d="M57.0937 141.499C57.7781 141.499 58.3326 140.945 58.3326 140.26C58.3326 139.576 57.7781 139.021 57.0937 139.021C56.4097 139.021 55.8549 139.576 55.8549 140.26C55.8549 140.945 56.4097 141.499 57.0937 141.499Z" fill="#0F75C2"/>
<path d="M43.3778 149.611C44.0622 149.611 44.6167 149.056 44.6167 148.372C44.6167 147.688 44.0622 147.133 43.3778 147.133C42.6935 147.133 42.1389 147.688 42.1389 148.372C42.1389 149.056 42.6935 149.611 43.3778 149.611Z" fill="#0F75C2"/>
<path d="M70.8097 149.375C71.4937 149.375 72.0486 148.82 72.0486 148.136C72.0486 147.452 71.4937 146.897 70.8097 146.897C70.1253 146.897 69.5708 147.452 69.5708 148.136C69.5708 148.82 70.1253 149.375 70.8097 149.375Z" fill="#0F75C2"/>
<path d="M57.0937 157.486C57.7781 157.486 58.3326 156.932 58.3326 156.247C58.3326 155.563 57.7781 155.009 57.0937 155.009C56.4097 155.009 55.8549 155.563 55.8549 156.247C55.8549 156.932 56.4097 157.486 57.0937 157.486Z" fill="#0F75C2"/>
<path d="M70.8097 165.363C71.4937 165.363 72.0486 164.808 72.0486 164.124C72.0486 163.44 71.4937 162.885 70.8097 162.885C70.1253 162.885 69.5708 163.44 69.5708 164.124C69.5708 164.808 70.1253 165.363 70.8097 165.363Z" fill="#0F75C2"/>
<path d="M139.214 46.0453C139.898 46.0453 140.453 45.4907 140.453 44.8064C140.453 44.1223 139.898 43.5675 139.214 43.5675C138.53 43.5675 137.975 44.1223 137.975 44.8064C137.975 45.4907 138.53 46.0453 139.214 46.0453Z" fill="#0F75C2"/>
<path d="M111.753 45.8395C112.437 45.8395 112.991 45.2849 112.991 44.6006C112.991 43.9163 112.437 43.3617 111.753 43.3617C111.069 43.3617 110.514 43.9163 110.514 44.6006C110.514 45.2849 111.069 45.8395 111.753 45.8395Z" fill="#0F75C2"/>
<path d="M125.498 53.9217C126.182 53.9217 126.737 53.3669 126.737 52.6829C126.737 51.9985 126.182 51.444 125.498 51.444C124.814 51.444 124.259 51.9985 124.259 52.6829C124.259 53.3669 124.814 53.9217 125.498 53.9217Z" fill="#0F75C2"/>
<path d="M139.214 62.0335C139.898 62.0335 140.453 61.4787 140.453 60.7946C140.453 60.1103 139.898 59.5557 139.214 59.5557C138.53 59.5557 137.975 60.1103 137.975 60.7946C137.975 61.4787 138.53 62.0335 139.214 62.0335Z" fill="#0F75C2"/>
<path d="M70.6033 38.8191C72.0206 38.8191 73.1695 37.6698 73.1695 36.2528C73.1695 34.8354 72.0206 33.6865 70.6033 33.6865C69.1859 33.6865 68.037 34.8354 68.037 36.2528C68.037 37.6698 69.1859 38.8191 70.6033 38.8191Z" fill="#0F75C2"/>
<path d="M84.3202 46.9309C85.7373 46.9309 86.8862 45.7817 86.8862 44.3646C86.8862 42.9473 85.7373 41.7983 84.3202 41.7983C82.9029 41.7983 81.7537 42.9473 81.7537 44.3646C81.7537 45.7817 82.9029 46.9309 84.3202 46.9309Z" fill="#0F75C2"/>
<path d="M98.0366 55.0427C99.454 55.0427 100.603 53.8934 100.603 52.4764C100.603 51.059 99.454 49.9101 98.0366 49.9101C96.6193 49.9101 95.4703 51.059 95.4703 52.4764C95.4703 53.8934 96.6193 55.0427 98.0366 55.0427Z" fill="#0F75C2"/>
<path d="M111.753 63.1544C113.17 63.1544 114.319 62.0052 114.319 60.5882C114.319 59.1708 113.17 58.0219 111.753 58.0219C110.335 58.0219 109.186 59.1708 109.186 60.5882C109.186 62.0052 110.335 63.1544 111.753 63.1544Z" fill="#0F75C2"/>
<path d="M125.498 71.2367C126.915 71.2367 128.064 70.0875 128.064 68.6704C128.064 67.2531 126.915 66.1041 125.498 66.1041C124.081 66.1041 122.932 67.2531 122.932 68.6704C122.932 70.0875 124.081 71.2367 125.498 71.2367Z" fill="#0F75C2"/>
<path d="M139.214 78.0209C139.898 78.0209 140.453 77.4663 140.453 76.782C140.453 76.0976 139.898 75.5431 139.214 75.5431C138.53 75.5431 137.975 76.0976 137.975 76.782C137.975 77.4663 138.53 78.0209 139.214 78.0209Z" fill="#0F75C2"/>
<path d="M70.6035 57.373C73.4382 57.373 75.736 55.0752 75.736 52.2405C75.736 49.4058 73.4382 47.1079 70.6035 47.1079C67.7688 47.1079 65.4709 49.4058 65.4709 52.2405C65.4709 55.0752 67.7688 57.373 70.6035 57.373Z" fill="#0F75C2"/>
<path d="M84.3203 65.4848C87.155 65.4848 89.4528 63.1869 89.4528 60.3522C89.4528 57.5175 87.155 55.2197 84.3203 55.2197C81.4856 55.2197 79.1877 57.5175 79.1877 60.3522C79.1877 63.1869 81.4856 65.4848 84.3203 65.4848Z" fill="#0F75C2"/>
<path d="M98.0362 73.5966C100.871 73.5966 103.169 71.2987 103.169 68.464C103.169 65.6293 100.871 63.3315 98.0362 63.3315C95.2015 63.3315 92.9037 65.6293 92.9037 68.464C92.9037 71.2987 95.2015 73.5966 98.0362 73.5966Z" fill="#0F75C2"/>
<path d="M111.752 81.6788C114.587 81.6788 116.884 79.3809 116.884 76.5462C116.884 73.7115 114.587 71.4137 111.752 71.4137C108.917 71.4137 106.62 73.7115 106.62 76.5462C106.62 79.3809 108.917 81.6788 111.752 81.6788Z" fill="#0F75C2"/>
<path d="M125.498 87.224C126.915 87.224 128.064 86.0751 128.064 84.6577C128.064 83.2404 126.915 82.0914 125.498 82.0914C124.081 82.0914 122.932 83.2404 122.932 84.6577C122.932 86.0751 124.081 87.224 125.498 87.224Z" fill="#0F75C2"/>
<path d="M139.214 94.0081C139.898 94.0081 140.453 93.4535 140.453 92.7692C140.453 92.0851 139.898 91.5303 139.214 91.5303C138.53 91.5303 137.975 92.0851 137.975 92.7692C137.975 93.4535 138.53 94.0081 139.214 94.0081Z" fill="#0F75C2"/>
<path d="M70.6035 73.3602C73.4382 73.3602 75.736 71.0624 75.736 68.2277C75.736 65.3933 73.4382 63.0952 70.6035 63.0952C67.7688 63.0952 65.4709 65.3933 65.4709 68.2277C65.4709 71.0624 67.7688 73.3602 70.6035 73.3602Z" fill="#0F75C2"/>
<path d="M84.3203 81.472C87.155 81.472 89.4528 79.1741 89.4528 76.3394C89.4528 73.505 87.155 71.2069 84.3203 71.2069C81.4856 71.2069 79.1877 73.505 79.1877 76.3394C79.1877 79.1741 81.4856 81.472 84.3203 81.472Z" fill="#0F75C2"/>
<path d="M98.0362 89.5543C100.871 89.5543 103.169 87.2564 103.169 84.4217C103.169 81.5873 100.871 79.2892 98.0362 79.2892C95.2015 79.2892 92.9037 81.5873 92.9037 84.4217C92.9037 87.2564 95.2015 89.5543 98.0362 89.5543Z" fill="#0F75C2"/>
<path d="M111.752 97.6661C114.587 97.6661 116.884 95.3682 116.884 92.5335C116.884 89.6991 114.587 87.401 111.752 87.401C108.917 87.401 106.62 89.6991 106.62 92.5335C106.62 95.3682 108.917 97.6661 111.752 97.6661Z" fill="#0F75C2"/>
<path d="M125.498 103.211C126.915 103.211 128.064 102.062 128.064 100.645C128.064 99.2277 126.915 98.0787 125.498 98.0787C124.081 98.0787 122.932 99.2277 122.932 100.645C122.932 102.062 124.081 103.211 125.498 103.211Z" fill="#0F75C2"/>
<path d="M139.214 109.996C139.898 109.996 140.453 109.442 140.453 108.757C140.453 108.073 139.898 107.518 139.214 107.518C138.53 107.518 137.975 108.073 137.975 108.757C137.975 109.442 138.53 109.996 139.214 109.996Z" fill="#0F75C2"/>
<path d="M70.6033 86.7818C72.0206 86.7818 73.1695 85.6329 73.1695 84.2155C73.1695 82.7982 72.0206 81.6492 70.6033 81.6492C69.1859 81.6492 68.037 82.7982 68.037 84.2155C68.037 85.6329 69.1859 86.7818 70.6033 86.7818Z" fill="#0F75C2"/>
<path d="M84.3202 94.864C85.7373 94.864 86.8862 93.7148 86.8862 92.2978C86.8862 90.8804 85.7373 89.7315 84.3202 89.7315C82.9029 89.7315 81.7537 90.8804 81.7537 92.2978C81.7537 93.7148 82.9029 94.864 84.3202 94.864Z" fill="#0F75C2"/>
<path d="M98.0366 102.976C99.454 102.976 100.603 101.827 100.603 100.41C100.603 98.9922 99.454 97.8433 98.0366 97.8433C96.6193 97.8433 95.4703 98.9922 95.4703 100.41C95.4703 101.827 96.6193 102.976 98.0366 102.976Z" fill="#0F75C2"/>
<path d="M111.753 111.088C113.17 111.088 114.319 109.938 114.319 108.521C114.319 107.104 113.17 105.955 111.753 105.955C110.335 105.955 109.186 107.104 109.186 108.521C109.186 109.938 110.335 111.088 111.753 111.088Z" fill="#0F75C2"/>
<path d="M125.498 117.872C126.182 117.872 126.737 117.317 126.737 116.633C126.737 115.949 126.182 115.394 125.498 115.394C124.814 115.394 124.259 115.949 124.259 116.633C124.259 117.317 124.814 117.872 125.498 117.872Z" fill="#0F75C2"/>
<path d="M139.214 125.984C139.898 125.984 140.453 125.429 140.453 124.745C140.453 124.061 139.898 123.506 139.214 123.506C138.53 123.506 137.975 124.061 137.975 124.745C137.975 125.429 138.53 125.984 139.214 125.984Z" fill="#0F75C2"/>
<path d="M70.6039 101.412C71.2879 101.412 71.8428 100.857 71.8428 100.173C71.8428 99.489 71.2879 98.9342 70.6039 98.9342C69.9195 98.9342 69.365 99.489 69.365 100.173C69.365 100.857 69.9195 101.412 70.6039 101.412Z" fill="#0F75C2"/>
<path d="M84.3198 109.524C85.0042 109.524 85.5587 108.969 85.5587 108.285C85.5587 107.601 85.0042 107.046 84.3198 107.046C83.6355 107.046 83.0809 107.601 83.0809 108.285C83.0809 108.969 83.6355 109.524 84.3198 109.524Z" fill="#0F75C2"/>
<path d="M98.0358 117.635C98.7201 117.635 99.2746 117.081 99.2746 116.397C99.2746 115.713 98.7201 115.158 98.0358 115.158C97.3514 115.158 96.7969 115.713 96.7969 116.397C96.7969 117.081 97.3514 117.635 98.0358 117.635Z" fill="#0F75C2"/>
<path d="M111.753 125.747C112.437 125.747 112.991 125.193 112.991 124.508C112.991 123.824 112.437 123.27 111.753 123.27C111.069 123.27 110.514 123.824 110.514 124.508C110.514 125.193 111.069 125.747 111.753 125.747Z" fill="#0F75C2"/>
<path d="M125.498 133.859C126.182 133.859 126.737 133.305 126.737 132.62C126.737 131.936 126.182 131.381 125.498 131.381C124.814 131.381 124.259 131.936 124.259 132.62C124.259 133.305 124.814 133.859 125.498 133.859Z" fill="#0F75C2"/>
<path d="M70.6039 117.4C71.2879 117.4 71.8428 116.846 71.8428 116.161C71.8428 115.477 71.2879 114.922 70.6039 114.922C69.9195 114.922 69.365 115.477 69.365 116.161C69.365 116.846 69.9195 117.4 70.6039 117.4Z" fill="#0F75C2"/>
<path d="M84.3198 125.512C85.0042 125.512 85.5587 124.957 85.5587 124.273C85.5587 123.589 85.0042 123.034 84.3198 123.034C83.6355 123.034 83.0809 123.589 83.0809 124.273C83.0809 124.957 83.6355 125.512 84.3198 125.512Z" fill="#0F75C2"/>
<path d="M98.0358 133.624C98.7201 133.624 99.2746 133.069 99.2746 132.385C99.2746 131.7 98.7201 131.146 98.0358 131.146C97.3514 131.146 96.7969 131.7 96.7969 132.385C96.7969 133.069 97.3514 133.624 98.0358 133.624Z" fill="#0F75C2"/>
<path d="M111.753 141.735C112.437 141.735 112.991 141.181 112.991 140.497C112.991 139.812 112.437 139.258 111.753 139.258C111.069 139.258 110.514 139.812 110.514 140.497C110.514 141.181 111.069 141.735 111.753 141.735Z" fill="#0F75C2"/>
<path d="M70.6039 133.387C71.2879 133.387 71.8428 132.833 71.8428 132.149C71.8428 131.464 71.2879 130.91 70.6039 130.91C69.9195 130.91 69.365 131.464 69.365 132.149C69.365 132.833 69.9195 133.387 70.6039 133.387Z" fill="#0F75C2"/>
<path d="M84.3198 141.499C85.0042 141.499 85.5587 140.945 85.5587 140.26C85.5587 139.576 85.0042 139.021 84.3198 139.021C83.6355 139.021 83.0809 139.576 83.0809 140.26C83.0809 140.945 83.6355 141.499 84.3198 141.499Z" fill="#0F75C2"/>
<path d="M98.0358 149.611C98.7201 149.611 99.2746 149.056 99.2746 148.372C99.2746 147.688 98.7201 147.133 98.0358 147.133C97.3514 147.133 96.7969 147.688 96.7969 148.372C96.7969 149.056 97.3514 149.611 98.0358 149.611Z" fill="#0F75C2"/>
<path d="M70.6039 149.375C71.2879 149.375 71.8428 148.82 71.8428 148.136C71.8428 147.452 71.2879 146.897 70.6039 146.897C69.9195 146.897 69.365 147.452 69.365 148.136C69.365 148.82 69.9195 149.375 70.6039 149.375Z" fill="#0F75C2"/>
<path d="M84.3198 157.486C85.0042 157.486 85.5587 156.932 85.5587 156.247C85.5587 155.563 85.0042 155.009 84.3198 155.009C83.6355 155.009 83.0809 155.563 83.0809 156.247C83.0809 156.932 83.6355 157.486 84.3198 157.486Z" fill="#0F75C2"/>
<path d="M70.6039 165.363C71.2879 165.363 71.8428 164.808 71.8428 164.124C71.8428 163.44 71.2879 162.885 70.6039 162.885C69.9195 162.885 69.365 163.44 69.365 164.124C69.365 164.808 69.9195 165.363 70.6039 165.363Z" fill="#0F75C2"/>
<path d="M69.1879 2.47778C69.8719 2.47778 70.4268 1.92322 70.4268 1.23888C70.4268 0.55484 69.8719 0 69.1879 0C68.5035 0 67.949 0.55484 67.949 1.23888C67.949 1.92322 68.5035 2.47778 69.1879 2.47778Z" fill="#0F75C2"/>
<path d="M55.4715 10.5896C56.1555 10.5896 56.7101 10.035 56.7101 9.35067C56.7101 8.66663 56.1555 8.11179 55.4715 8.11179C54.7871 8.11179 54.2323 8.66663 54.2323 9.35067C54.2323 10.035 54.7871 10.5896 55.4715 10.5896Z" fill="#0F75C2"/>
<path d="M41.7545 18.7013C42.4389 18.7013 42.9934 18.1467 42.9934 17.4624C42.9934 16.7784 42.4389 16.2235 41.7545 16.2235C41.0705 16.2235 40.5156 16.7784 40.5156 17.4624C40.5156 18.1467 41.0705 18.7013 41.7545 18.7013Z" fill="#0F75C2"/>
<path d="M28.0386 26.8131C28.7226 26.8131 29.2775 26.2585 29.2775 25.5742C29.2775 24.8902 28.7226 24.3353 28.0386 24.3353C27.3542 24.3353 26.7997 24.8902 26.7997 25.5742C26.7997 26.2585 27.3542 26.8131 28.0386 26.8131Z" fill="#0F75C2"/>
<path d="M14.3225 34.9248C15.0065 34.9248 15.5614 34.3702 15.5614 33.6859C15.5614 33.0019 15.0065 32.447 14.3225 32.447C13.6382 32.447 13.0836 33.0019 13.0836 33.6859C13.0836 34.3702 13.6382 34.9248 14.3225 34.9248Z" fill="#0F75C2"/>
<path d="M69.1879 18.4659C69.8719 18.4659 70.4268 17.9111 70.4268 17.227C70.4268 16.5427 69.8719 15.9882 69.1879 15.9882C68.5035 15.9882 67.949 16.5427 67.949 17.227C67.949 17.9111 68.5035 18.4659 69.1879 18.4659Z" fill="#0F75C2"/>
<path d="M55.4715 26.5777C56.1555 26.5777 56.7101 26.0229 56.7101 25.3388C56.7101 24.6545 56.1555 24.0999 55.4715 24.0999C54.7871 24.0999 54.2323 24.6545 54.2323 25.3388C54.2323 26.0229 54.7871 26.5777 55.4715 26.5777Z" fill="#0F75C2"/>
<path d="M41.7545 34.6894C42.4389 34.6894 42.9934 34.1346 42.9934 33.4506C42.9934 32.7662 42.4389 32.2117 41.7545 32.2117C41.0705 32.2117 40.5156 32.7662 40.5156 33.4506C40.5156 34.1346 41.0705 34.6894 41.7545 34.6894Z" fill="#0F75C2"/>
<path d="M68.9813 2.47778C69.6657 2.47778 70.2202 1.92322 70.2202 1.23888C70.2202 0.55484 69.6657 0 68.9813 0C68.2973 0 67.7424 0.55484 67.7424 1.23888C67.7424 1.92322 68.2973 2.47778 68.9813 2.47778Z" fill="#0F75C2"/>
<path d="M82.6974 10.5896C83.3817 10.5896 83.9363 10.035 83.9363 9.35067C83.9363 8.66663 83.3817 8.11179 82.6974 8.11179C82.0133 8.11179 81.4585 8.66663 81.4585 9.35067C81.4585 10.035 82.0133 10.5896 82.6974 10.5896Z" fill="#0F75C2"/>
<path d="M96.4139 18.7013C97.098 18.7013 97.6528 18.1467 97.6528 17.4624C97.6528 16.7784 97.098 16.2235 96.4139 16.2235C95.7296 16.2235 95.175 16.7784 95.175 17.4624C95.175 18.1467 95.7296 18.7013 96.4139 18.7013Z" fill="#0F75C2"/>
<path d="M110.13 26.8131C110.814 26.8131 111.369 26.2585 111.369 25.5742C111.369 24.8902 110.814 24.3353 110.13 24.3353C109.445 24.3353 108.891 24.8902 108.891 25.5742C108.891 26.2585 109.445 26.8131 110.13 26.8131Z" fill="#0F75C2"/>
<path d="M123.875 34.9248C124.56 34.9248 125.114 34.3702 125.114 33.6859C125.114 33.0019 124.56 32.447 123.875 32.447C123.191 32.447 122.636 33.0019 122.636 33.6859C122.636 34.3702 123.191 34.9248 123.875 34.9248Z" fill="#0F75C2"/>
<path d="M68.9813 18.4659C69.6657 18.4659 70.2202 17.9111 70.2202 17.227C70.2202 16.5427 69.6657 15.9882 68.9813 15.9882C68.2973 15.9882 67.7424 16.5427 67.7424 17.227C67.7424 17.9111 68.2973 18.4659 68.9813 18.4659Z" fill="#0F75C2"/>
<path d="M82.6974 26.5777C83.3817 26.5777 83.9363 26.0229 83.9363 25.3388C83.9363 24.6545 83.3817 24.0999 82.6974 24.0999C82.0133 24.0999 81.4585 24.6545 81.4585 25.3388C81.4585 26.0229 82.0133 26.5777 82.6974 26.5777Z" fill="#0F75C2"/>
<path d="M96.4139 34.6894C97.098 34.6894 97.6528 34.1346 97.6528 33.4506C97.6528 32.7662 97.098 32.2117 96.4139 32.2117C95.7296 32.2117 95.175 32.7662 95.175 33.4506C95.175 34.1346 95.7296 34.6894 96.4139 34.6894Z" fill="#0F75C2"/>
</svg>
